<svg viewBox="0 0 120 80" fill="none" xmlns="http://www.w3.org/2000/svg">
  <rect x="32" y="16" width="64" height="56" rx="6" fill="var(--nd-color-neutral-60)" />
  <rect x="28" y="12" width="64" height="56" rx="6" fill="var(--nd-color-neutral-0)" />
  <rect x="28" y="12" width="64" height="12" rx="6" fill="var(--nd-color-brand-60)" />
  <rect x="28" y="18" width="64" height="6" fill="var(--nd-color-brand-60)" />
  <rect x="40" y="10" width="4" height="8" rx="2" fill="var(--nd-color-neutral-0)" />
  <rect x="76" y="10" width="4" height="8" rx="2" fill="var(--nd-color-neutral-0)" />

  <g fill="var(--nd-color-neutral-60)">
    <circle cx="40" cy="36" r="2" />
    <circle cx="50" cy="36" r="2" />
    <circle cx="60" cy="36" r="2" />
    <circle cx="70" cy="36" r="2" />
    <circle cx="80" cy="36" r="2" />
    <circle cx="40" cy="46" r="2" />
    <circle cx="50" cy="46" r="2" />
    <circle cx="70" cy="46" r="2" />
    <circle cx="80" cy="46" r="2" />
    <circle cx="40" cy="56" r="2" />
    <circle cx="50" cy="56" r="2" />
    <circle cx="60" cy="56" r="2" />
    <circle cx="70" cy="56" r="2" />
    <circle cx="80" cy="56" r="2" />
  </g>
  <circle cx="60" cy="46" r="4" fill="var(--nd-color-brand-60)" />
</svg>
